<?xml version="1.0" encoding="utf-8"?>
<!-- Generator: Adobe Illustrator 16.0.3, SVG Export Plug-In . SVG Version: 6.00 Build 0)  -->
<!DOCTYPE svg PUBLIC "-//W3C//DTD SVG 1.1//EN" "http://www.w3.org/Graphics/SVG/1.1/DTD/svg11.dtd">
<svg version="1.1" xmlns="http://www.w3.org/2000/svg" xmlns:xlink="http://www.w3.org/1999/xlink" x="0px" y="0px"
	 width="858.898px" height="1207.56px" viewBox="0 0 858.898 1207.56" enable-background="new 0 0 858.898 1207.56"
	 xml:space="preserve">
<g id="Layer_1">
	<g>
		<rect y="0.002" display="none" fill="#F69420" width="858.896" height="1207.558"/>
	</g>
	<g id="Layer_3">
		<g>
			<defs>
				<rect id="SVGID_1_" x="-93.768" y="-110.438" width="1009.553" height="1419.369"/>
			</defs>
			<clipPath id="SVGID_2_">
				<use xlink:href="#SVGID_1_"  overflow="visible"/>
			</clipPath>
			
				<rect x="-1394.266" y="-3239.64" clip-path="url(#SVGID_2_)" fill="none" stroke="#000000" stroke-miterlimit="10" width="5239.924" height="4635.618"/>
			<path clip-path="url(#SVGID_2_)" fill="#F69420" d="M429.982,893.822l-15.818-37.152l-18.06,42.759l-67.655-29.595l1.566,35.138
				l84.914,39.357l98.167-48.275l-1.314-44.881L429.982,893.822z M541.34,755.389l-98.375-29.117l-27.047,24.032l-27.813-21.226
				l-97.88,40.527l34.147,27.427l-30.891,47.705l97.889,42.813l22.765-53.979l20.309,47.762l102.514-53.466l-27.939-42.372
				L541.34,755.389z M413.777,827.011l-81.513-34.461l83.455-36.9l86.453,29.287L413.777,827.011z"/>
			<path clip-path="url(#SVGID_2_)" fill="#F69420" d="M270.964,681.397c-2.302,0.741-4.439,1.634-6.267,2.591
				c-5.386,2.813-5.753,5.252-4.522,9.142l1.628,5.138l13.481-4.271l0.542,1.714l-13.481,4.27l-5.059,1.603
				c-3.917,1.24-6.602,4.683-6.257,9.502c0.388,5.527,1.348,8.749,4.34,13.701c2.221,3.688,5.411,5.806,9.329,4.564l4.635-1.467
				l-1.95-6.159c-1.409-4.45,1.197-9.595,5.769-11.041l13.465-4.266c3.748-1.188,5.762-5.223,4.57-8.986l-4.066-12.836
				c-1.156-3.653-5.108-5.421-8.96-4.873C275.724,680.071,273.265,680.657,270.964,681.397 M264.983,687.837
				c1.393-0.44,2.896,0.356,3.345,1.777c0.449,1.416-0.326,2.921-1.719,3.36c-1.396,0.444-2.891-0.342-3.34-1.76
				C262.819,689.795,263.585,688.282,264.983,687.837"/>
			<path clip-path="url(#SVGID_2_)" fill="#F69420" d="M290.972,690.914l1.896,5.985c1.471,4.643-1.228,9.794-5.714,11.216
				l-13.465,4.264c-3.688,1.169-5.74,5.292-4.571,8.985l4.065,12.836c1.158,3.653,5.016,4.797,8.911,4.717
				c4.664-0.096,8.828-1.166,13.465-4.265c3.082-2.059,5.801-5.096,4.57-8.986l-1.626-5.138l-13.465,4.266l-0.542-1.712
				l13.464-4.267l6.741-2.134c3.918-1.242,4.512-4.437,4.576-8.969c0.069-4.67-1.276-8.712-4.339-13.701
				c-2.204-3.595-4.983-5.944-8.905-4.701L290.972,690.914z M293.695,725.819c1.398-0.442,2.894,0.345,3.341,1.76
				c0.45,1.421-0.316,2.937-1.714,3.378c-1.392,0.441-2.895-0.354-3.346-1.774C291.528,727.766,292.303,726.26,293.695,725.819"/>
			<path clip-path="url(#SVGID_2_)" fill="#F69420" d="M539.123,684.477l-4.415-2.935l3.262-4.906l-15.208-10.111l-3.262,4.905
				l-4.906-3.262l3.262-4.906l-15.21-10.112l-3.26,4.906l-4.417-2.936l-9.784,14.718l4.413,2.937l-3.586,5.396l4.904,3.263
				l-2.935,4.415l4.906,3.262l-3.588,5.397l4.904,3.261l-2.936,4.416l5.887,3.914l2.938-4.415l4.906,3.263l3.588-5.398l4.906,3.264
				l2.935-4.416l4.906,3.262l3.588-5.396l4.417,2.936L539.123,684.477z M511.356,694.316l-3.261,4.906l-5.396-3.589l-3.264,4.906
				l-3.924-2.609l3.262-4.906l-5.397-3.588l3.263-4.905l-4.415-2.937l3.588-5.396l-5.397-3.589l9.134-13.736l14.228,9.459
				l-2.935,4.416l5.886,3.914l2.938-4.415l14.226,9.459l-9.134,13.737l-5.396-3.59l-3.588,5.398L511.356,694.316z"/>
			<path clip-path="url(#SVGID_2_)" fill="#F69420" d="M378.527,654.005l-8.407,50.573l-0.133,0.666h8.81l8.408-50.575l0.132-0.664
				H378.527z M365.85,661.747l-2.267,1.47l-17.08,10.674l-2.003,1.199v9.078l2.003,1.2l17.08,10.675l2.267,1.47v-10.142
				l-12.409-7.742l12.409-7.741V661.747z M391.469,661.747v10.141l12.409,7.741l-12.409,7.742v10.142l2.268-1.47l17.079-10.675
				l2.003-1.2v-9.078l-2.003-1.199l-17.079-10.674L391.469,661.747z"/>
			<path clip-path="url(#SVGID_2_)" fill="#F69420" d="M442.549,624.167c13.188-0.02,23.862-10.726,23.847-23.913
				c-0.019-13.188-10.727-23.863-23.911-23.845c-13.189,0.016-23.867,10.723-23.848,23.911
				C418.654,613.508,429.36,624.185,442.549,624.167 M450.655,588.783c2.153-0.004,3.904,1.742,3.907,3.896
				c0.003,2.154-1.741,3.901-3.896,3.907c-2.152,0.003-3.901-1.743-3.903-3.897C446.76,590.535,448.502,588.785,450.655,588.783
				 M456.232,604.806c0.008,5.64-6.126,10.22-13.698,10.229c-7.572,0.012-13.72-4.552-13.728-10.192L456.232,604.806z
				 M434.343,588.804c2.154-0.003,3.903,1.742,3.905,3.896c0.004,2.153-1.741,3.901-3.894,3.906
				c-2.155,0.002-3.903-1.742-3.907-3.896C430.445,590.556,432.189,588.808,434.343,588.804"/>
		</g>
		<text transform="matrix(1 0 0 1 505.9072 629.6147)" fill="#F69420" font-family="'Lato-Regular'" font-size="58.6853">&gt;&gt;&gt;</text>
		<g>
			<defs>
				<rect id="SVGID_3_" x="-93.768" y="-110.438" width="1009.553" height="1419.369"/>
			</defs>
			<clipPath id="SVGID_4_">
				<use xlink:href="#SVGID_3_"  overflow="visible"/>
			</clipPath>
			<path clip-path="url(#SVGID_4_)" fill="#F69420" d="M67.422,321.633l25.933,79.109l100.686-33.007l-25.934-79.109L67.422,321.633
				z M108.716,374.71l-9.55-4.836l9.669-19.098l-19.098-9.668l4.834-9.55l28.648,14.503L108.716,374.71z M169.743,353.255
				l-32.688,10.716l-3.162-9.643l32.688-10.716L169.743,353.255z"/>
			<path clip-path="url(#SVGID_4_)" fill="#F69420" d="M233.926,611.839c-2.082,4.397,0.979,9.01,0.464,13.211
				c-0.153,1.244-0.394,1.984-1.113,2.97c-4.514-0.465-11.732,3.157-16.938,3.03c-4.629-0.117-4.513-3.473-6.944-6.365
				c-0.496-2.082,5.288-9.729,7.406-13.654c5.901-10.936,2.487-10.704,4.049-12.613c1.083-1.326,5.669-2.679,11.456-2.894
				c3.124-0.115,5.612,4.282,5.612,4.282s7.699-3.096,14.639,0.463c4.512,2.313,4.881,6.561,7.753,11.803
				c2.553,5.206-0.571,12.323-0.571,12.323s-0.066,2.313,2.989,1.574c1.633-0.395,2.588-1.464,3.039-2.981
				c0.784-2.646-0.59-3.497-0.732-4.107c-0.404-1.735,2.687-0.816,3.209-1.857c0.52-1.041,0.861-2.059,1.961,1.356
				c2.569,7.984-0.547,13.945-4.376,15.665c-4.45,1.999-8.421,0.859-13.676-1.432c-1.183-0.518-3.522-2.651-3.471-1.252
				c0.124,3.471-0.143,3.816,1.28,5.533c0.272,0.329-0.261,0.858-1.967,0.809c-2.111-0.061-4.566-2.673-4.566-2.673
				c-3.587,5.322-0.722,13.552-0.988,15.632c-0.514,3.993-3.133,6.319-3.877,7.116c-1.096,1.176-0.301,1.57-0.52,2.257
				c-0.322,1.005-1.274,2.155-2.671,2.444c-1.396,0.419-11.845-7.784-11.741-8.514c0.103-0.731,1.936-2.505,3.071-3.072
				c0.809-0.407,0.578-1.04,0.51-1.593c-0.158-1.295-8.501-2.688-9.717-2.283c-1.389,1.387-1.273,5.901-1.273,5.901
				s0.22,0.694,0.81,1.33c0.45,0.903,0.748,3.29-0.069,3.655c-3.221,1.437-17.045,0.243-17.981-0.59
				c-0.521-0.461,0-2.95,0.925-3.703c2.496-2.025,0.347-9.835,0.347-9.835c-13.654-13.075-7.342-24.843-7.342-24.843
				s-0.99,1.355-2.321,1.087c-1.73-0.351-2.522-2.265-3.167-4.087c-1.104-0.554-1.253-1.676-0.939-2.561
				c0.356-1.007,2.744-2.633,3.774-3.886c0.019,1.456-0.847,2.946-0.35,3.979c0.513,1.063-0.313,2.079-0.901,2.301
				c0.091,1.51,1.031,2.099,2.062,2.135c1.253,0.047,1.198-1.839,3.111-3.994c0.753-2.277,2.948-4.729,8.502-7.392
				c5.484-2.628,15.512-1.915,15.512-1.915c-0.599,1.395-0.711,2.419-1.85,4.346c-2.748,4.654-9.488,13.435-8.919,15.816
				c2.781,3.311,3.157,8.179,8.456,8.313c5.961,0.148,12.831-3.784,17.997-3.252c1.063-1.763,2.197-2.626,2.105-4.029
				C235.546,618.997,233.114,614.391,233.926,611.839 M249.889,616.87c-0.307-0.669-0.499-0.673-0.808-0.88
				c-0.617-0.219-1.326-0.093-2.054,0.235c-0.769,0.347-0.963,0.673-1.274,1.096c-0.161,0.676-0.035,0.976,0.158,1.348
				c0.255,0.491,0.721,0.779,1.063,0.953c0.563-0.35,0.771-0.592,1.473-0.871c0.454-0.182,1.083-0.211,1.389-0.278
				C249.911,618.257,250.161,617.459,249.889,616.87"/>
			<polygon clip-path="url(#SVGID_4_)" fill="#F69420" points="183.999,551.722 138.994,500.079 138.849,568.463 154.339,557.642 
				164.273,584.428 175.132,580.401 165.198,553.616 			"/>
		</g>
		
			<text transform="matrix(0.9679 0.2513 -0.2513 0.9679 549.3975 545.5078)" fill="#F69420" font-family="'Lato-Regular'" font-size="58.7697">{% %}</text>
		<g>
			<defs>
				<rect id="SVGID_5_" x="-93.768" y="-110.438" width="1009.553" height="1419.369"/>
			</defs>
			<clipPath id="SVGID_6_">
				<use xlink:href="#SVGID_5_"  overflow="visible"/>
			</clipPath>
			<path clip-path="url(#SVGID_6_)" fill="#F69420" d="M297.72,572.111l15.742-3.325l8.313,39.354l-15.74,3.324L297.72,572.111z
				 M321.332,567.123l15.741-3.324l-1.663-7.87l7.871-1.663l-1.662-7.871l7.869-1.663l-4.987-23.61l7.872-1.663l4.988,23.613
				l1.662,7.871l23.61-4.989l9.977,47.222l-39.353,8.315l-1.662-7.871l-23.611,4.988L321.332,567.123z M342.838,513.251l1.663,7.871
				l-7.872,1.663l3.325,15.74l-7.869,1.661l3.325,15.743l-47.223,9.976L299.826,621l31.483-6.651l-1.663-7.873l23.61-4.985
				l1.663,7.87l39.353-8.313l-1.662-7.872l7.87-1.663l-11.639-55.092l-23.611,4.988l-6.65-31.482L342.838,513.251z"/>
			<path clip-path="url(#SVGID_6_)" fill="#F69420" d="M244.067,477.495c-0.095-0.009-0.189-0.019-0.285-0.019
				c-2.518,0-4.262,2.042-4.262,4.56c0,2.482,0.967,4.499,4.755,4.551v0.014c17.997,0.247,33.738,15.619,33.738,34.487
				c0,19.019-15.619,34.713-34.637,34.713c-18.153,0-33.221-13.697-34.549-31.692h8.01l-12.36-20.548l-12.357,20.548h7.579
				c1.339,22.731,20.349,40.803,43.526,40.803c24.049,0,43.616-19.664,43.616-43.716
				C286.841,497.432,267.727,477.945,244.067,477.495"/>
			<path clip-path="url(#SVGID_6_)" fill="#F69420" d="M248.064,498.734c0-2.145-1.723-3.988-3.864-3.988h-0.834
				c-2.139,0-3.826,1.843-3.826,3.988v22.927l-11.228,11.208c-1.657,1.658-1.572,4.348-0.004,5.996c1.571,1.668,4.327,1.668,5.985,0
				l12.408-12.407c0.094-0.105,0.171-0.209,0.265-0.303c0.682-0.707,1.098-1.662,1.098-2.719L248.064,498.734L248.064,498.734z"/>
			<path clip-path="url(#SVGID_6_)" fill="#F69420" d="M734.966,404.454c19.377,5.464,33.423,15.792,31.372,23.066
				c-2.052,7.275-19.424,8.742-38.801,3.278c-19.378-5.465-33.424-15.792-31.372-23.067
				C698.216,400.457,715.588,398.989,734.966,404.454"/>
			<path clip-path="url(#SVGID_6_)" fill="#F69420" d="M664.668,427.433l4.962-17.597c0,0-3.577,13.093,31.402,22.957
				c34.979,9.865,38.771-3.167,38.771-3.167l-5.022,17.813c0,0-4.146,13.862-39.123,4
				C660.68,441.574,664.668,427.433,664.668,427.433"/>
			<path clip-path="url(#SVGID_6_)" fill="#F69420" d="M658,451.074l4.963-17.596c0,0-3.576,13.092,31.402,22.956
				c34.979,9.865,38.771-3.167,38.771-3.167l-5.025,17.813c0,0-4.144,13.866-39.121,4.002C654.012,465.217,658,451.074,658,451.074"
				/>
			<path clip-path="url(#SVGID_6_)" fill="#F69420" d="M651.516,474.069l4.962-17.6c0,0-3.575,13.096,31.402,22.959
				c34.978,9.865,38.771-3.17,38.771-3.17l-5.022,17.815c0,0-4.146,13.864-39.121,4C647.527,488.21,651.516,474.069,651.516,474.069
				"/>
			<path clip-path="url(#SVGID_6_)" fill="#F69420" d="M637.896,373.517c-0.114,2.997-0.395,6.131-0.799,9.335
				c0.846-0.812,1.646-1.8,2.367-2.961c2.31-3.716,3.588-8.673,3.588-13.956c0-5.284-1.278-10.241-3.588-13.957
				c-1.868-2.996-4.226-4.876-6.758-5.399C637.584,353.929,638.234,365.239,637.896,373.517"/>
			<path clip-path="url(#SVGID_6_)" fill="#F69420" d="M636.666,372.573c-0.097-0.26-0.205-0.513-0.316-0.764
				c-0.137-0.332-0.292-0.646-0.449-0.958c-0.167-0.317-0.334-0.633-0.52-0.929c-1.898-3.119-4.734-5.236-8.481-6.282l-0.15-0.039
				l-0.047-0.012l-0.068-0.017l-0.129-0.033c-1.055-0.246-2.111-0.392-3.137-0.417h-0.099l-0.093-0.024
				c-4.449-1.113-17.209-2.466-28.42-3.509c0.199,0.436,0.395,0.884,0.565,1.337c0.008,0.015,0.016,0.029,0.01,0.053
				c2.835,1.408,5.035,4.257,6.296,8.219c0.448,1.407,0.757,2.916,0.938,4.489c1.822,0.354,3.195,0.57,3.771,0.654l1.229,0.19
				l-0.558,1.112c-3.063,6.098-5.377,14.314-6.704,23.764c-1.222,8.756-1.556,18.074-0.96,26.959
				c0.239,3.578,0.614,6.729,1.071,9.12c0.638,3.28,1.203,3.886,1.272,3.953c0.122,0.056,0.201,0.089,0.237,0.098l0.061,0.003
				l0.023,0.006l0.485,0.138c0.049,0.012,0.097,0.012,0.216-0.058c0.433-0.286,1.326-1.449,2.386-5.973
				c0.742-3.2,1.343-7.097,1.872-10.526c0.622-4.029,1.113-7.207,1.689-8.488c1.282-2.877,3.803-3.549,5.731-3.229l0.074,0.006
				l0.066,0.029c1.851,0.636,3.734,2.447,3.477,5.587c-0.12,1.397-1.206,4.424-2.595,8.255c-1.186,3.273-2.53,6.968-3.414,10.133
				c-1.242,4.464-1.017,5.914-0.777,6.385c0.066,0.13,0.125,0.143,0.161,0.153l0.562,0.131l0.01,0.002
				c0.036,0.01,0.121,0.019,0.244,0.024c0.093-0.026,0.878-0.271,3.018-2.854c1.546-1.877,3.389-4.462,5.317-7.484
				c3.714-5.82,7.116-12.266,9.9-18.684c0.147-0.335,0.284-0.673,0.427-0.996c0.153-0.346,0.288-0.685,0.439-1.032
				c1.5-3.628,2.792-7.223,3.827-10.684C638.604,388.685,639.138,379.07,636.666,372.573"/>
			<path clip-path="url(#SVGID_6_)" fill="#F69420" d="M600.879,375.179c-0.019-0.315-0.051-0.633-0.07-0.937
				c-0.03-0.318-0.073-0.641-0.119-0.95c-0.165-1.247-0.431-2.434-0.787-3.569c-0.84-2.649-2.122-4.717-3.749-6.078
				c0.663,2.754,0.878,5.741,0.785,8.773c-0.004,0.31-0.021,0.616-0.038,0.923c-0.014,0.305-0.032,0.612-0.059,0.916
				c-0.382,5.517-1.677,11.062-3.039,15.608c-0.949,3.173-2.116,6.476-3.463,9.797c0.805-0.527,1.601-1.155,2.39-1.91
				c3.275-3.137,5.832-7.788,7.188-13.093C600.746,381.431,601.063,378.195,600.879,375.179"/>
			<path clip-path="url(#SVGID_6_)" fill="#F69420" d="M590.241,321.847c7.547,1.931,12.099,9.615,10.166,17.162
				c-1.931,7.546-9.614,12.099-17.16,10.167c-7.548-1.931-12.1-9.614-10.169-17.163
				C575.011,324.468,582.693,319.916,590.241,321.847"/>
			<path clip-path="url(#SVGID_6_)" fill="#F69420" d="M634.083,333.39c7.548,1.931,12.1,9.614,10.169,17.162
				c-1.933,7.546-9.615,12.098-17.163,10.167c-7.546-1.931-12.1-9.615-10.167-17.162
				C618.854,336.011,626.537,331.458,634.083,333.39"/>
			<path clip-path="url(#SVGID_6_)" fill="#F69420" d="M595.072,373.793c0.017-0.307,0.034-0.625,0.049-0.92
				c0.016-0.306,0.023-0.627,0.026-0.924c0.068-3.672-0.345-6.908-1.261-9.64c-0.087-0.246-0.169-0.503-0.26-0.737
				c-0.046-0.111-0.089-0.234-0.135-0.345c-0.143-0.36-0.306-0.699-0.467-1.039c-0.131-0.27-0.272-0.541-0.419-0.791
				c-0.188-0.333-0.379-0.656-0.588-0.958c-0.222-0.343-0.461-0.665-0.705-0.976c-1.84-2.334-4.346-3.945-7.473-4.832l-0.151-0.039
				l-0.048-0.012l-0.068-0.018l-0.129-0.033c-3.717-0.865-7.175-0.408-10.281,1.343c0.135,0.495,0.211,1.011,0.247,1.555
				c0.026,0.341,0.022,0.689,0.006,1.045c-0.01,0.332-0.048,0.671-0.097,1.006c-0.183,1.256-0.611,2.539-1.298,3.768
				c-1.995,3.575-5.666,5.631-8.845,5.041c-1.846,4.061-3.392,8.933-4.571,14.521c-0.813,3.804-1.436,7.893-1.869,12.105
				c-0.04,0.399-0.078,0.787-0.118,1.188c-0.032,0.376-0.07,0.765-0.104,1.141c-0.561,6.651-0.65,13.561-0.204,20.11
				c0.242,3.577,0.614,6.729,1.071,9.118c0.639,3.281,1.204,3.886,1.274,3.955c0.121,0.056,0.199,0.088,0.235,0.098h0.051
				l0.021,0.005l0.487,0.138c0.047,0.011,0.097,0.011,0.214-0.057c0.433-0.288,1.326-1.45,2.386-5.974
				c0.745-3.201,1.345-7.097,1.874-10.527c0.62-4.027,1.111-7.207,1.688-8.488c1.282-2.876,3.803-3.548,5.733-3.229l0.072,0.007
				l0.068,0.029c1.851,0.635,3.734,2.446,3.478,5.585c-0.123,1.397-1.206,4.424-2.598,8.255c-1.186,3.274-2.528,6.967-3.412,10.133
				c-1.242,4.465-1.019,5.913-0.777,6.384c0.066,0.13,0.125,0.145,0.159,0.153l0.562,0.131l0.012,0.004
				c0.037,0.008,0.121,0.018,0.242,0.024c0.095-0.025,0.878-0.272,3.018-2.856c1.549-1.876,3.391-4.461,5.319-7.483
				c3.524-5.52,6.76-11.611,9.462-17.702c0.151-0.347,0.302-0.694,0.455-1.051c0.157-0.371,0.31-0.729,0.465-1.087
				c1.651-3.925,3.07-7.823,4.199-11.559C593.786,383.625,594.787,378.402,595.072,373.793"/>
			<path clip-path="url(#SVGID_6_)" fill="#F69420" d="M571.612,356.583c0.019-0.318,0.026-0.64,0.021-0.952
				c-0.013-0.25-0.032-0.505-0.072-0.738c-0.019-0.079-0.022-0.155-0.041-0.234c-0.048-0.248-0.11-0.487-0.187-0.719
				c-0.099-0.298-0.226-0.58-0.367-0.851c-0.382-0.695-0.907-1.263-1.59-1.649c-0.239-0.136-0.499-0.24-0.763-0.319l-0.22-0.069
				l-0.167-0.168c-0.119-0.118-0.242-0.224-0.375-0.294c-0.116-0.067-0.256-0.115-0.383-0.148c-1.54-0.394-4.285,1.264-6.229,4.729
				c-0.596,1.065-1.049,2.253-1.314,3.39c-0.123,0.528-0.205,1.042-0.228,1.52c-0.032,0.463-0.022,0.913,0.048,1.316
				c0.123,0.826,0.468,1.475,1.052,1.81c0.131,0.071,0.277,0.134,0.442,0.163l0.226,0.046l0.171,0.155
				c0.191,0.173,0.405,0.315,0.618,0.445c0.022,0.017,0.044,0.022,0.064,0.041c0.239,0.136,0.499,0.24,0.763,0.32
				c0.059,0.016,0.117,0.029,0.178,0.045c0.243,0.062,0.495,0.102,0.751,0.117c2.319,0.16,4.933-1.508,6.444-4.214
				C571.14,359.108,571.523,357.804,571.612,356.583"/>
			<path clip-path="url(#SVGID_6_)" fill="#F69420" d="M518.07,470.98h-10.577v-11.754h-36.438v11.754h-11.755v-11.754h-36.438
				v11.754h-10.579v35.262h10.579v12.93h11.753v10.578h11.756v12.93h11.753v10.579h14.104V542.68h11.756v-12.93h11.753v-10.578
				h11.755v-12.93h10.577V470.98z M482.81,517.997v11.754h-12.93v11.754h-9.403V529.75h-12.929v-11.754h-10.58v-12.93h-12.929
				v-32.911h34.086v10.579h14.104v-10.579h34.088v32.911h-12.931v12.93H482.81z"/>
		</g>
		
			<text transform="matrix(0.9438 -0.3306 0.4213 0.9069 114.6641 480.0269)" fill="#F69420" font-family="'Lato-Regular'" font-size="58.6853">&gt;&gt;&gt;</text>
		<g>
			<defs>
				<rect id="SVGID_7_" x="-93.768" y="-110.438" width="1009.553" height="1419.369"/>
			</defs>
			<clipPath id="SVGID_8_">
				<use xlink:href="#SVGID_7_"  overflow="visible"/>
			</clipPath>
			<path clip-path="url(#SVGID_8_)" fill="#F69420" d="M613.457,678.928c1.925-6.111,3.322-6.598,6.962-9.238
				c3.64-2.639,3.688-4.769,3.908-7.827c0.221-3.058-4.557-8.517-4.557-8.517s21.95-24.57,22.726-25.489
				c0.773-0.922,3.475-0.756,3.475-0.756s0.324-0.989,1.188-2.42l0.222,0.203c-0.114,0.273-0.03,0.628,0.233,0.869
				c0.326,0.303,0.798,0.316,1.056,0.039c0.255-0.28,0.197-0.747-0.131-1.046c-0.264-0.243-0.626-0.295-0.888-0.156l-0.28-0.256
				c0.353-0.56,0.783-1.174,1.305-1.816c0.123-0.154,0.249-0.304,0.38-0.446l0.489,0.451c-0.114,0.273-0.03,0.627,0.234,0.871
				c0.328,0.298,0.799,0.315,1.057,0.035c0.254-0.278,0.195-0.746-0.131-1.044c-0.264-0.243-0.628-0.297-0.89-0.159l-0.485-0.444
				c0.708-0.733,1.457-1.32,2.126-1.766l0.38,0.349c-0.114,0.274-0.029,0.629,0.236,0.872c0.326,0.299,0.797,0.315,1.055,0.035
				c0.254-0.278,0.195-0.747-0.133-1.045c-0.264-0.242-0.626-0.296-0.888-0.158l-0.3-0.278c0.96-0.604,1.671-0.887,1.671-0.887
				l-0.022-3.687l-1.518-0.712l-0.846-1.45l-3.671,0.303c0,0-0.219,0.733-0.738,1.746l-0.481-0.441
				c0.117-0.273,0.03-0.628-0.235-0.871c-0.326-0.298-0.797-0.314-1.053-0.036c-0.254,0.279-0.195,0.748,0.131,1.047
				c0.264,0.242,0.622,0.296,0.888,0.156l0.558,0.512c-0.385,0.703-0.902,1.503-1.57,2.273l-0.467-0.427
				c0.116-0.275,0.03-0.629-0.233-0.872c-0.328-0.298-0.802-0.314-1.056-0.034c-0.253,0.276-0.195,0.745,0.131,1.046
				c0.266,0.242,0.627,0.295,0.889,0.156l0.471,0.433c-0.131,0.141-0.268,0.279-0.411,0.417c-0.594,0.572-1.169,1.056-1.694,1.457
				l-0.26-0.237c0.114-0.274,0.029-0.628-0.236-0.872c-0.324-0.298-0.797-0.315-1.053-0.035c-0.256,0.279-0.197,0.746,0.129,1.044
				c0.266,0.243,0.626,0.297,0.888,0.157l0.206,0.187c-1.352,0.983-2.308,1.397-2.308,1.397s0.402,2.674-0.447,3.527
				c-0.848,0.852-23.39,24.882-23.39,24.882s-5.86-4.276-8.884-3.789c-3.028,0.485-5.144,0.721-7.453,4.58
				c-2.312,3.859-2.674,5.293-8.589,7.751c-5.916,2.458-11.696,4.767-13.244,8.238c-1.547,3.471-4.675,9.703,7.289,20.657
				c11.967,10.955,17.898,7.29,21.22,5.44C609.737,691,611.526,685.038,613.457,678.928 M611.856,658.286
				c1.663,1.522,1.776,4.106,0.254,5.771c-1.523,1.664-4.106,1.778-5.771,0.254c-1.665-1.522-1.78-4.107-0.254-5.771
				C607.606,656.876,610.191,656.761,611.856,658.286 M601.63,678.351l-3.84-3.515l-1.184-1.081l-3.839-3.517l1.622-1.772
				l2.423,1.877l0.628-0.24l1.364,1.252l1.182,1.079l1.369,1.253l-0.187,0.646l2.083,2.246L601.63,678.351z"/>
			<path clip-path="url(#SVGID_8_)" fill="#F69420" d="M801.187,317.859l-6.13-9.147c-0.612-0.916-1.881-1.018-2.799-0.404
				L759.68,330.26l-19.925-3.937l-21.783-32.694c-0.59-0.88-1.876-1.208-2.756-0.618l-9.138,6.093
				c-0.916,0.614-1.386,1.792-0.771,2.708l21.266,32.01l-7.119,36.035c-0.215,1.081,0.98,2.038,2.064,2.252l37.227,7.355
				c1.083,0.213,2.502-0.227,2.715-1.309l7.043-35.644l32.34-21.844c0.439-0.295,0.645-0.772,0.749-1.292
				C801.691,318.858,801.48,318.3,801.187,317.859"/>
			<path clip-path="url(#SVGID_8_)" fill="#F69420" d="M750.618,322.975c8.331,1.646,16.448-3.793,18.095-12.126
				c1.647-8.331-3.793-16.45-12.125-18.095c-8.333-1.646-16.45,3.793-18.098,12.124
				C736.846,313.211,742.285,321.328,750.618,322.975"/>
			<path clip-path="url(#SVGID_8_)" fill="#F69420" d="M678.818,170.623c-3.531-1.599-7.034-2.841-10.232-3.674
				c-9.431-2.458-12.492,0.042-15.219,5.99l-3.6,7.856l20.611,9.448l-1.201,2.619l-20.611-9.448l-7.737-3.545
				c-5.989-2.746-12.885-1.55-17.664,4.547c-5.492,6.985-7.823,11.845-9.603,20.949c-1.333,6.774,0.173,12.726,6.162,15.472
				l7.089,3.248l4.315-9.417c3.119-6.803,11.756-10.106,18.748-6.902l20.589,9.437c5.729,2.627,12.468,0.004,15.105-5.75
				l8.997-19.628c2.561-5.585-0.229-11.942-5.396-15.438C685.903,174.172,682.352,172.221,678.818,170.623 M664.776,171.831
				c2.13,0.976,3.058,3.541,2.062,5.712c-0.992,2.166-3.533,3.12-5.661,2.143c-2.138-0.979-3.066-3.522-2.073-5.688
				C660.098,171.825,662.641,170.852,664.776,171.831"/>
			<path clip-path="url(#SVGID_8_)" fill="#F69420" d="M692.338,203.477l-4.198,9.153c-3.251,7.095-12.005,10.312-18.866,7.166
				l-20.587-9.437c-5.639-2.585-12.521,0.103-15.107,5.751l-8.997,19.627c-2.561,5.585,0.792,11.099,5.505,15.198
				c5.645,4.91,11.743,8.124,20.587,9.437c5.879,0.877,12.383,0.199,15.109-5.749l3.602-7.855l-20.589-9.437l1.201-2.62
				l20.588,9.438l10.306,4.724c5.991,2.746,10.137-0.411,15.097-5.727c5.109-5.47,7.866-11.721,9.602-20.948
				c1.252-6.643,0.48-12.425-5.517-15.174L692.338,203.477z M657.974,247.874c2.138,0.979,3.066,3.524,2.073,5.689
				c-0.996,2.172-3.537,3.146-5.673,2.167c-2.13-0.976-3.058-3.54-2.062-5.712C653.305,247.852,655.846,246.898,657.974,247.874"/>
			<path clip-path="url(#SVGID_8_)" fill="#F69420" d="M171.168,172.556l8.66,50.845l-79.708,13.573l-8.659-50.845L171.168,172.556
				 M170.732,169.993l-79.707,13.574c-1.483,0.253-2.49,1.673-2.261,3.022l8.658,50.844c0.253,1.484,1.65,2.355,3.134,2.104
				l79.707-13.573c1.483-0.253,2.491-1.673,2.261-3.022l-8.659-50.845C173.613,170.613,172.215,169.741,170.732,169.993"/>
			<path clip-path="url(#SVGID_8_)" fill="#F69420" d="M189.66,250.177l-89.958,15.319c-0.404,0.068-0.832,0.002-1.17-0.356
				c-0.315-0.224-0.384-0.629-0.454-1.034l1.882-21.553c0.042-0.563,0.514-1.059,1.187-1.174l79.303-13.504
				c0.539-0.092,1.148,0.221,1.51,0.714l8.909,19.716c0.203,0.382,0.137,0.809-0.085,1.125
				C190.447,249.903,190.2,250.084,189.66,250.177 M100.885,262.657l86.585-14.744l-7.662-17.291l-77.279,13.159L100.885,262.657z"
				/>
			<path clip-path="url(#SVGID_8_)" fill="#F69420" d="M142.41,213.12c-0.404,0.069-0.832,0.003-1.17-0.356
				c-0.496-0.47-0.5-1.303-0.029-1.798l7.753-8.259l-10.05-5.229c-0.608-0.313-0.88-1.099-0.567-1.706
				c0.313-0.609,1.099-0.881,1.708-0.569l11.559,5.943c0.315,0.224,0.653,0.583,0.723,0.986c0.069,0.405,0.002,0.833-0.356,1.172
				l-8.94,9.433C142.949,213.028,142.679,213.073,142.41,213.12"/>
			<path clip-path="url(#SVGID_8_)" fill="#F69420" d="M132.512,213.94c-0.274,0-0.548-0.137-0.821-0.274l-10.398-7.798
				c-0.273-0.274-0.547-0.684-0.547-1.094c0-0.412,0.138-0.822,0.547-1.096l10.398-7.798c0.546-0.41,1.368-0.274,1.779,0.274
				c0.41,0.547,0.273,1.369-0.274,1.778l-9.03,6.841l9.03,6.839c0.547,0.411,0.684,1.232,0.274,1.779
				C133.332,213.803,132.922,213.94,132.512,213.94"/>
		</g>
		<text transform="matrix(1.0915 0 0 1 127.8965 1031.7466)"><tspan x="0" y="0" fill="#F69420" font-family="'JustTheWayYouAre'" font-size="54.0686">EuroPython</tspan><tspan x="275.306" y="0" fill="#F69420" font-family="'JustTheWayYouAre'" font-size="36"> </tspan><tspan x="293.306" y="0" fill="#F69420" font-family="'JustTheWayYouAre'" font-size="54.0686">2015,</tspan><tspan x="392.573" y="0" fill="#F69420" font-family="'JustTheWayYouAre'" font-size="36"> </tspan><tspan x="410.572" y="0" fill="#F69420" font-family="'JustTheWayYouAre'" font-size="54.0686">Bilbao</tspan><tspan x="264.879" y="16.926" fill="#F69420" font-family="'Lato-Regular'" font-size="14.1048">  </tspan><tspan x="155.491" y="56.419" fill="#F69420" font-family="'Lato-Regular'" font-size="32.9113">July 20th, 2015</tspan></text>
		<rect x="-93.768" y="-110.44" fill="none" width="1009.553" height="1419.371"/>
	</g>
</g>
<g id="Layer_2">
	<g>
		<g>
			<g>
				<path fill="#F69420" d="M265.422,172.259h19.629v90.751c-10.021,1.889-17.412,2.71-25.46,2.71
					c-23.899,0-36.382-10.84-36.382-31.538c0-19.956,13.222-32.932,33.754-32.932c3.202,0,5.584,0.246,8.542,0.985L265.422,172.259
					L265.422,172.259z M265.422,217.921c-2.299-0.738-4.188-0.984-6.652-0.984c-9.937,0-15.687,6.077-15.687,16.835
					c0,10.431,5.504,16.179,15.522,16.179c2.135,0,3.942-0.164,6.735-0.493L265.422,217.921z"/>
				<path fill="#F69420" d="M316.26,202.563v45.417c0,15.687-1.149,23.161-4.6,29.649c-3.203,6.242-7.39,10.183-16.015,14.536
					l-18.231-8.624c8.623-4.106,12.893-7.637,15.521-13.14c2.793-5.584,3.695-12.072,3.695-29.154v-38.684H316.26z M296.63,172.341
					h19.63v20.122h-19.63V172.341z"/>
				<path fill="#F69420" d="M328.085,206.999c8.625-4.107,16.919-5.831,25.953-5.831c10.017,0,16.671,2.711,19.628,7.884
					c1.641,2.957,2.135,6.735,2.135,14.865v39.833c-8.786,1.312-19.875,2.134-28.005,2.134c-16.426,0-23.818-5.748-23.818-18.479
					c0-13.715,9.773-20.122,33.838-22.174v-4.353c0-3.532-1.807-4.845-6.734-4.845c-7.229,0-15.439,2.053-23.079,5.994
					L328.085,206.999L328.085,206.999z M358.719,238.208c-12.977,1.314-17.164,3.285-17.164,8.377c0,3.777,2.381,5.584,7.802,5.584
					c2.956,0,5.584-0.247,9.444-0.903L358.719,238.208L358.719,238.208z"/>
				<path fill="#F69420" d="M385.328,205.603c11.58-3.04,21.107-4.435,30.799-4.435c10.02,0,17.328,2.3,21.679,6.735
					c4.11,4.188,5.338,8.787,5.338,18.56v38.436H423.52v-37.697c0-7.473-2.551-10.348-9.528-10.348c-2.71,0-5.092,0.247-9.034,1.396
					v46.566h-19.629V205.603L385.328,205.603z"/>
				<path fill="#F69420" d="M450.785,275.576c6.895,3.532,13.714,5.255,21.023,5.255c12.895,0,18.314-5.255,18.314-17.657
					c0-0.164,0-0.246,0-0.41c-3.776,1.889-7.638,2.71-12.731,2.71c-17.163,0-28.167-11.333-28.167-29.32
					c0-22.255,16.176-34.903,44.841-34.903c8.377,0,16.18,0.904,25.622,2.792l-6.732,14.126c-5.261-0.986-0.415-0.165-4.354-0.494
					v2.054l0.245,8.295l0.168,10.675c0.165,2.71,0.165,5.339,0.245,8.05c0,2.38,0,3.531,0,5.337c0,16.836-1.396,24.72-5.585,31.21
					c-6.077,9.525-16.673,14.29-31.702,14.29c-7.64,0-14.292-1.151-21.106-3.86L450.785,275.576L450.785,275.576z M489.711,217.019
					c-0.246,0-0.489,0-0.654,0h-1.399c-3.777-0.165-8.293,0.902-11.333,2.792c-4.679,2.71-7.141,7.472-7.141,14.371
					c0,9.775,4.84,15.44,13.467,15.44c2.712,0,4.846-0.493,7.389-1.314v-1.396v-5.257c0-2.3-0.163-4.845-0.163-7.474l-0.165-9.033
					l-0.161-6.488L489.711,217.019L489.711,217.019z"/>
				<path fill="#F69420" d="M550.077,200.84c19.625,0,31.535,12.319,31.535,32.357c0,20.533-12.484,33.344-32.354,33.344
					c-19.631,0-31.706-12.32-31.706-32.195C517.634,213.735,530.12,200.84,550.077,200.84z M549.664,250.774
					c7.474,0,11.991-6.242,11.991-17.083c0-10.676-4.351-17.082-11.828-17.082c-7.797,0-12.234,6.241-12.234,17.082
					C537.593,244.532,542.03,250.774,549.664,250.774z"/>
			</g>
		</g>
		<g>
			<path fill="#F69420" d="M315.684,462.088c-2.463,0.245-4.928,0.08-7.391-0.576c-2.463-0.659-4.599-1.562-6.571-2.793
				c-1.97-1.231-3.45-2.708-4.517-4.517c-1.066-1.807-1.477-3.694-1.066-5.667c1.806,0,3.448,0.329,4.845,1.067
				c1.396,0.742,2.792,1.562,4.188,2.466c1.396,0.903,2.875,1.724,4.435,2.463c1.561,0.739,3.45,1.068,5.585,1.068
				c5.256,0,9.69-1.15,13.304-3.45c3.614-2.3,6.489-5.256,8.624-9.034c2.218-3.695,3.778-7.967,4.682-12.648
				c0.986-4.682,1.396-9.444,1.396-14.373c0-1.313-0.082-3.284-0.165-5.995c-0.083-2.71-0.329-5.831-0.493-9.198
				c-0.165-3.45-0.412-6.98-0.575-10.759c-0.247-3.778-0.493-7.392-0.657-10.758c-0.247-3.45-0.494-6.489-0.658-9.199
				c-0.245-2.71-0.41-4.763-0.574-5.994c-0.74,1.806-1.643,4.023-2.71,6.651c-1.069,2.627-2.382,5.421-3.779,8.295
				c-1.396,2.875-3.039,5.831-4.762,8.623c-1.725,2.793-3.779,5.42-5.914,7.721c-2.218,2.298-4.598,4.105-7.146,5.501
				c-2.545,1.396-5.338,2.135-8.211,2.135c-1.561,0-2.711-0.739-3.614-2.3c-0.904-1.56-1.56-3.285-1.972-5.336
				c-0.492-1.972-0.738-3.943-0.903-5.914c-0.164-1.971-0.164-3.369-0.164-4.189c-0.492-5.832-0.492-11.58,0-17.247
				c0.492-5.667,1.396-11.005,2.792-15.934c1.396-4.928,3.286-9.362,5.584-13.304c2.3-3.942,5.174-6.981,8.541-9.199
				c3.368-2.217,7.227-3.531,11.498-3.777c4.354-0.329,9.117,0.657,14.536,2.956c1.479-0.163,2.465,0.658,2.957,2.464
				c0.492,1.808,0.739,4.025,0.657,6.652c-0.083,2.629-0.166,5.42-0.493,8.295c-0.246,2.874-0.492,5.338-0.574,7.392
				c0,4.763,0.164,9.444,0.574,14.208c0.328,4.764,0.822,9.445,1.315,14.126c0.491,4.682,0.903,9.363,1.313,14.044
				c0.328,4.681,0.577,9.362,0.577,14.125c0,5.422-0.577,11.17-1.644,17.248c-1.067,6.077-2.957,11.662-5.667,16.753
				c-2.709,5.174-6.242,9.363-10.594,12.731C327.675,460.444,322.172,462.088,315.684,462.088z M307.39,382.341
				c0,0.903,0,2.053,0.083,3.367c0.083,1.314,0.246,2.627,0.574,3.778c0.329,1.231,0.822,2.299,1.478,3.121
				c0.658,0.903,1.644,1.315,2.957,1.315c2.547,0,4.928-1.15,7.063-3.45c2.136-2.3,4.188-5.256,6.077-8.869
				c1.889-3.614,3.532-7.556,5.011-11.908c1.478-4.353,2.791-8.624,3.779-12.813c1.066-4.188,1.806-7.966,2.38-11.417
				c0.575-3.449,0.82-5.913,0.82-7.555c-5.584-1.972-10.266-1.972-14.208,0.165c-3.941,2.052-7.062,5.42-9.444,9.854
				c-2.382,4.517-4.188,9.856-5.255,15.933C307.637,369.94,307.144,376.182,307.39,382.341z"/>
			<path fill="#F69420" d="M361.593,313.354c-0.656,0-1.396-0.246-2.217-0.657c-0.822-0.494-1.56-0.985-2.136-1.725
				c-0.574-0.656-0.984-1.396-1.231-2.216c-0.246-0.74-0.083-1.396,0.492-1.972c0.328-1.067,1.067-2.053,2.217-3.037
				c1.067-0.903,2.218-1.562,3.451-1.808c1.149-0.329,2.217-0.247,3.037,0.165c0.903,0.41,1.315,1.396,1.315,3.039
				c0,0.82-0.082,1.724-0.165,2.627c-0.082,0.904-0.412,1.807-0.822,2.628c-0.409,0.821-0.904,1.479-1.558,2.053
				C363.318,313.108,362.497,313.354,361.593,313.354z M367.343,401.148c-0.493,0-1.068-0.083-1.808-0.246
				c-0.738-0.165-1.479-0.494-2.216-0.822c-0.74-0.328-1.314-0.821-1.807-1.315c-0.493-0.492-0.739-1.067-0.739-1.723l-0.163-65.621
				c0-0.657,0.246-1.231,0.738-1.725c0.494-0.491,1.15-0.903,1.807-1.313c0.741-0.329,1.478-0.657,2.218-0.822
				c0.739-0.164,1.315-0.246,1.806-0.246L367.343,401.148z"/>
			<path fill="#F69420" d="M377.033,345.303c-0.248-1.151-0.656-2.711-1.068-4.518c-0.493-1.808-0.902-3.696-1.231-5.584
				c-0.329-1.889-0.574-3.697-0.574-5.42c0-1.727,0.246-3.122,0.821-4.189c0.573-1.068,1.478-1.643,2.874-1.807
				c1.396-0.164,3.285,0.493,5.749,1.807c0.165,0.904,0.411,2.463,0.739,4.599c0.33,2.136,0.657,4.435,0.985,6.816
				c0.329,2.383,0.656,4.682,0.985,6.817c0.247,2.135,0.411,3.695,0.411,4.598c1.643-3.612,3.697-7.061,6.241-10.346
				c2.546-3.286,5.505-6.161,8.872-8.624c3.365-2.465,7.062-4.435,11.004-5.831c4.024-1.479,8.295-2.218,12.811-2.218l-1.396,7.803
				c-5.832,0.985-11.25,3.449-16.26,7.391c-5.01,3.941-9.28,8.952-12.647,15.111c-3.369,6.16-5.586,13.387-6.735,21.681
				c-1.149,8.295-0.74,17.248,1.314,27.02l-8.624,1.806c-0.082-0.081-0.245-1.231-0.409-3.366c-0.164-2.136-0.411-4.846-0.658-8.213
				c-0.247-3.368-0.573-7.146-0.821-11.333c-0.247-4.189-0.575-8.378-0.822-12.566c-0.247-4.189-0.572-8.131-0.902-11.909
				C377.443,350.969,377.198,347.848,377.033,345.303z"/>
			<path fill="#F69420" d="M431.811,282.721l7.64-1.068c0.33,4.846,0.741,10.513,0.986,17.083
				c0.327,6.569,0.571,13.467,0.819,20.696c0.248,7.309,0.413,14.619,0.574,22.175c0.165,7.473,0.33,14.618,0.495,21.352
				c0.161,6.736,0.327,12.813,0.491,18.232c0.167,5.421,0.411,9.693,0.658,12.731c0,1.313-0.247,2.463-0.658,3.612
				c-0.491,1.149-0.986,1.972-1.641,2.465c-0.658,0.492-1.396,0.574-2.219,0.164c-0.82-0.41-1.561-1.397-2.218-3.039
				L431.811,282.721z"/>
			<path fill="#F69420" d="M449.961,374.456c0.743-1.56,1.563-2.545,2.631-2.957c0.985-0.41,2.299-0.493,3.94-0.328
				c3.284,3.039,6.65,5.83,10.021,8.46c3.45,2.627,6.979,4.928,10.678,6.816c3.694,1.888,7.639,3.449,11.743,4.598
				c4.104,1.15,8.458,1.726,13.058,1.726c0.904,0,1.969,0,3.119,0c1.151,0,2.222-0.165,3.207-0.492
				c0.984-0.329,1.808-0.823,2.462-1.562c0.656-0.739,0.984-1.807,0.984-3.12c-0.328-2.711-1.806-5.092-4.271-7.145
				c-2.464-2.054-5.502-4.025-9.035-5.833c-3.529-1.888-7.308-3.777-11.332-5.748s-7.639-4.188-10.922-6.652
				c-3.286-2.464-5.915-5.338-7.886-8.624c-1.971-3.203-2.79-7.144-2.302-11.662c0-2.545,0.826-4.845,2.465-6.815
				c1.645-1.971,3.615-3.697,5.997-5.092c2.382-1.397,4.846-2.465,7.395-3.286c2.625-0.739,4.838-1.149,6.894-1.149
				c3.943,0,7.888,0.574,11.91,1.725c4.026,1.149,7.641,2.792,10.841,5.011l-3.694,5.173c-1.643-1.396-3.695-2.381-6.077-3.039
				c-2.382-0.657-4.927-1.067-7.391-1.067c-2.549-0.082-5.011,0.164-7.478,0.576c-2.462,0.491-4.596,1.149-6.484,2.135
				c-1.893,0.985-3.288,2.052-4.189,3.449c-0.986,1.314-1.232,2.709-0.741,4.271c0,4.27,1.149,7.72,3.451,10.43
				c2.299,2.711,5.172,5.009,8.622,6.982c3.449,1.971,7.146,3.694,11.172,5.254c4.021,1.562,7.717,3.286,11.167,5.257
				c3.449,1.972,6.326,4.271,8.621,6.98c2.301,2.711,3.452,6.078,3.452,10.266c0,2.628-0.408,4.764-1.316,6.242
				c-0.904,1.561-1.967,2.71-3.448,3.531c-1.396,0.822-3.119,1.397-5.01,1.643c-1.969,0.246-4.024,0.41-6.24,0.41
				c-4.927,0-10.021-0.656-15.278-1.888c-5.255-1.232-10.427-3.038-15.438-5.338s-9.689-5.01-14.047-8.213
				C456.782,381.93,453.083,378.317,449.961,374.456z"/>
		</g>
	</g>
</g>
</svg>
