<?xml version="1.0" encoding="utf-8"?>
<!-- Generator: Adobe Illustrator 18.1.1, SVG Export Plug-In . SVG Version: 6.00 Build 0)  -->
<svg version="1.1" id="Layer_1" xmlns="http://www.w3.org/2000/svg" xmlns:xlink="http://www.w3.org/1999/xlink" x="0px" y="0px"
	 viewBox="0 -0.1 92 50" enable-background="new 0 -0.1 92 50" xml:space="preserve">
<g>
	<polygon points="14.3,41.2 20.2,28.7 10.7,9.7 17,9.7 23.1,22.4 28.8,9.7 34.8,9.7 20.3,41.2 	"/>
	<path d="M38.4,24.4c1.4,1.3,3.7,2.1,5.8,2.1c1.5,0,2.7-0.7,2.7-1.8c0-3.2-10.2-2-10.2-8.8c0-4,3.9-6.5,8.1-6.5
		c2.8,0,5.7,1.1,7.1,2.1l-2.7,4.1c-1.1-0.8-2.5-1.4-4-1.4c-1.6,0-2.9,0.6-2.9,1.7c0,2.8,10.2,1.7,10.2,9c0,4-3.9,6.5-8.4,6.5
		c-2.9,0-6-1-8.5-2.8L38.4,24.4z"/>
	<path d="M73.3,30.8c-0.7,0.3-2.4,0.4-3.5,0.4c-3.4,0-5.9-1.1-7.3-3.1c-1.1-1.4-1.6-3.3-1.6-6.3v-7.4H55V9.7h5.9V3.9h5.6v5.9h7v4.8
		h-7v8c0,1.3,0.2,2.1,0.7,2.7c0.6,0.6,1.5,1.1,2.9,1.1c0.8,0,1.9-0.1,2.3-0.2L73.3,30.8z"/>
	<path d="M0,9.7v-9.8h5.6v9.8v4.8v8c0,1.3,0.2,2.1,0.7,2.7c0.6,0.6,1.5,1.1,2.9,1.1c0.8,0,1.9-0.1,2.3-0.2l0.9,4.8
		c-0.7,0.3-2.4,0.4-3.5,0.4c-3.4,0-5.9-1.1-7.3-3.1c-1-1.5-1.5-3.4-1.5-6.4v-7.4L0,9.7L0,9.7z"/>
	<rect y="44.3" width="92" height="5.6"/>
</g>
</svg>
